<svg width="52" height="59" viewBox="0 0 52 59" fill="none" xmlns="http://www.w3.org/2000/svg">
<path d="M42.1 49.0999C40 51.0999 38 53.1999 35.9 55.1999C35 56.1999 33.8 56.9999 32.5 57.4999C28.9 58.7999 25.6 58.2999 22.8 55.5999C16.1 49.0999 9.6 42.4999 3 35.8999C-0.5 32.3999 -0.5 26.5999 3 23.0999C9.6 16.4999 16.1 9.9999 22.7 3.3999C26.2 -0.100098 31.9 -0.100098 35.5 3.3999C39.9 7.7999 44.3 12.1999 48.7 16.5999C52.2 20.0999 52.2 25.6999 48.8 29.1999C44.8 33.3999 40.6 37.4999 36.5 41.5999C36.3 41.7999 36.2 41.8999 36.1 42.0999C35.7 42.2999 35.7 42.4999 36.1 42.8999C38 44.7999 39.9 46.6999 41.8 48.5999C42 48.6999 42.2 48.7999 42.1 49.0999ZM42.1 23.0999C42.1 22.8999 41.9 22.7999 41.7 22.5999L29.6 10.3999C29.3 10.0999 29.1 9.9999 28.8 10.3999C22.6 16.6999 16.3 22.8999 10.1 29.0999C9.8 29.3999 9.8 29.5999 10.1 29.8999C16.4 36.0999 22.6 42.3999 28.8 48.5999C29.1 48.8999 29.3 48.8999 29.6 48.5999C31.5 46.6999 33.4 44.7999 35.3 42.8999C35.6 42.5999 35.6 42.3999 35.3 42.0999C33.4 40.1999 31.5 38.2999 29.6 36.3999C29.3 36.0999 29.2 35.8999 29.6 35.4999C33.6 31.4999 37.7 27.3999 41.7 23.3999L42.1 23.0999Z" fill="#97C93F"/>
</svg>